<svg aria-hidden="true" style="position: absolute; width: 0; height: 0; overflow: hidden;" version="1.1" xmlns="http://www.w3.org/2000/svg" xmlns:xlink="http://www.w3.org/1999/xlink">
<defs>
<symbol id="icon-arrow1" viewBox="0 0 38 32">
<path fill="#011c44" style="fill: var(--color1, #011c44)" d="M0.624 17.218c-0.833-0.833-0.833-2.184 0-3.017l13.576-13.576c0.833-0.833 2.184-0.833 3.017 0s0.833 2.184 0 3.017l-12.068 12.068 12.068 12.068c0.833 0.833 0.833 2.184 0 3.017s-2.184 0.833-3.017 0l-13.576-13.576zM37.892 17.843l-35.759 0v-4.267l35.759-0v4.267z"></path>
</symbol>
<symbol id="icon-arrow2" viewBox="0 0 38 32">
<path fill="#011c44" style="fill: var(--color1, #011c44)" d="M37.267 14.201c0.833 0.833 0.833 2.184 0 3.017l-13.576 13.576c-0.833 0.833-2.184 0.833-3.017 0s-0.833-2.184 0-3.017l12.068-12.068-12.068-12.068c-0.833-0.833-0.833-2.184 0-3.017s2.184-0.833 3.017 0l13.576 13.576zM35.758 17.843l-35.759 0v-4.267l35.759-0v4.267z"></path>
</symbol>
</defs>
</svg>
